<?xml version="1.0" encoding="utf-8"?>
<!-- Generator: Adobe Illustrator 16.0.4, SVG Export Plug-In . SVG Version: 6.00 Build 0)  -->
<!DOCTYPE svg PUBLIC "-//W3C//DTD SVG 1.1//EN" "http://www.w3.org/Graphics/SVG/1.1/DTD/svg11.dtd">
<svg version="1.1" id="Layer_1" xmlns="http://www.w3.org/2000/svg" xmlns:xlink="http://www.w3.org/1999/xlink" x="0px" y="0px"
	 width="34.559px" height="34.559px" viewBox="0 0 34.559 34.559" enable-background="new 0 0 34.559 34.559" xml:space="preserve">
<g>
	<path fill="#FFFFFF" d="M30.481,25.062l-7.842-8.505l7.852-7.866c0.162-0.162,0.439-0.047,0.439,0.182v16.013
		C30.931,25.122,30.642,25.233,30.481,25.062z M18.503,20.7c-0.451,0.449-1.062,0.703-1.698,0.703h-0.021
		c-0.649,0-1.271-0.256-1.729-0.715l-2.326-2.321L4.75,26.49c-0.161,0.161-0.044,0.438,0.185,0.438h24.227
		c0.225,0,0.342-0.267,0.189-0.433l-7.988-8.661L18.503,20.7z M16.783,19.601L16.783,19.601c0.173,0,0.335-0.067,0.458-0.19
		L29.114,7.513c0.164-0.162,0.048-0.439-0.182-0.439H4.593c-0.229,0-0.343,0.278-0.182,0.44l11.918,11.896
		C16.45,19.532,16.612,19.601,16.783,19.601z M3.07,9.348v15.646c0,0.229,0.28,0.344,0.44,0.18l7.939-8.082L3.51,9.164
		C3.347,9.002,3.07,9.118,3.07,9.348z"/>
</g>
</svg>
