<?xml version="1.0" encoding="utf-8"?>
<!-- Generator: Adobe Illustrator 16.0.4, SVG Export Plug-In . SVG Version: 6.00 Build 0)  -->
<!DOCTYPE svg PUBLIC "-//W3C//DTD SVG 1.1//EN" "http://www.w3.org/Graphics/SVG/1.1/DTD/svg11.dtd">
<svg version="1.1" id="Layer_1" xmlns="http://www.w3.org/2000/svg" xmlns:xlink="http://www.w3.org/1999/xlink" x="0px" y="0px"
	 width="32px" height="32px" viewBox="0 0 32 32" enable-background="new 0 0 32 32" xml:space="preserve">
<g id="_x37__music_node">
	<path fill="#FFFFFF" d="M25.271,19.102c0.006-0.016,0.013-0.028,0.021-0.043c0.004-0.05,0.008-0.101,0.015-0.151
		c-0.011-0.028-0.022-0.056-0.033-0.084C20.512,15.88,21.186,7.172,15.65,4.086c-0.181-0.103-0.358-0.14-0.534-0.153
		c-0.061-0.015-0.119-0.038-0.186-0.038c-0.442,0-0.802,0.36-0.802,0.803v17.466c-0.789-0.502-1.798-0.816-2.916-0.816
		c-2.496,0-4.521,1.514-4.521,3.381c0,1.865,2.024,3.379,4.521,3.379s4.521-1.514,4.521-3.379c0-0.015-0.005-0.025-0.005-0.039
		c0.001-0.01,0.005-0.018,0.005-0.026V11.084c2.626,1.646,2.691,6.202,6.24,7.766c0.473,0.217,1.323,0.367,2.188,0.485
		c0.104-0.005,0.2-0.015,0.305-0.015c0.06,0,0.112,0.006,0.169,0.008c0.088-0.018,0.184-0.025,0.273-0.039
		C25.025,19.223,25.146,19.16,25.271,19.102z"/>
</g>
</svg>
