<?xml version="1.0" encoding="utf-8"?>
<!-- Generator: Adobe Illustrator 16.0.4, SVG Export Plug-In . SVG Version: 6.00 Build 0)  -->
<!DOCTYPE svg PUBLIC "-//W3C//DTD SVG 1.1//EN" "http://www.w3.org/Graphics/SVG/1.1/DTD/svg11.dtd">
<svg version="1.1" id="Layer_1" xmlns="http://www.w3.org/2000/svg" xmlns:xlink="http://www.w3.org/1999/xlink" x="0px" y="0px"
	 width="32px" height="32px" viewBox="0 0 32 32" enable-background="new 0 0 32 32" xml:space="preserve">
<g id="_x38__audio_headphones">
	<g>
		<path fill="#FFFFFF" d="M25.773,15.927c-0.015-0.004-0.027-0.012-0.041-0.017v-1.004c0-5.359-4.361-9.722-9.723-9.722
			c-5.361,0-9.722,4.362-9.722,9.722v0.996v10.61c0.569,0.193,1.177,0.305,1.812,0.305c0.184,0,0.366-0.012,0.546-0.028v-4.517
			v-6.617h0.209c-0.069-0.009-0.14-0.008-0.209-0.016v-0.733c0-4.061,3.304-7.364,7.365-7.364c4.062,0,7.364,3.303,7.364,7.364
			v0.731c-0.076,0.008-0.154,0.007-0.23,0.018h0.209v11.133c0.181,0.019,0.363,0.028,0.547,0.028c0.656,0,1.287-0.118,1.873-0.327
			V15.927L25.773,15.927z"/>
		<path fill="#FFFFFF" d="M5.028,16.537c-1.522,1.002-2.537,2.711-2.537,4.67c0,1.961,1.01,3.688,2.537,4.689V16.537z"/>
		<path fill="#FFFFFF" d="M27.033,16.577v9.282c1.494-1.008,2.477-2.717,2.477-4.651S28.521,17.584,27.033,16.577z"/>
	</g>
</g>
</svg>
