<?xml version="1.0" encoding="utf-8"?>
<!-- Generator: Adobe Illustrator 16.0.4, SVG Export Plug-In . SVG Version: 6.00 Build 0)  -->
<!DOCTYPE svg PUBLIC "-//W3C//DTD SVG 1.1//EN" "http://www.w3.org/Graphics/SVG/1.1/DTD/svg11.dtd">
<svg version="1.1" id="Layer_1" xmlns="http://www.w3.org/2000/svg" xmlns:xlink="http://www.w3.org/1999/xlink" x="0px" y="0px"
	 width="35.102px" height="35.102px" viewBox="-1.014 -1.014 35.102 35.102" enable-background="new -1.014 -1.014 35.102 35.102"
	 xml:space="preserve">
<g transform="translate(0 192)">
	<path fill="#FFFFFF" d="M26.294-177l6-4v16l-6-4V-177z M24.294-177v8c0,2.209-1.791,4-4,4h-16c-2.209,0-4-1.791-4-4v-8
		c0-2.209,1.791-4,4-4h10c0-1.105,0.895-2,2-2v-2h-11c-0.553,0-1-0.447-1-1s0.447-1,1-1h12c0.553,0,1,0.447,1,1v3
		c1.105,0,2,0.895,2,2C22.503-181,24.294-179.209,24.294-177z M12.294-177h-8v8h8V-177z M20.294-176c0-0.553-0.447-1-1-1h-4
		c-0.553,0-1,0.447-1,1s0.447,1,1,1h4C19.847-175,20.294-175.447,20.294-176z"/>
</g>
</svg>
